<?xml version="1.0" standalone="no"?>
<!DOCTYPE svg PUBLIC "-//W3C//DTD SVG 20010904//EN"
 "http://www.w3.org/TR/2001/REC-SVG-20010904/DTD/svg10.dtd">
<svg version="1.0" xmlns="http://www.w3.org/2000/svg"
 width="187.000000pt" height="78.000000pt" viewBox="0 0 187.000000 78.000000"
 preserveAspectRatio="xMidYMid meet">

<g transform="translate(0.000000,78.000000) scale(0.100000,-0.100000)"
fill="#000000" stroke="none">
<path d="M386 759 c-110 -9 -181 -22 -274 -51 -100 -31 -103 -37 -101 -297 0
-205 1 -214 22 -236 34 -35 95 -69 177 -98 161 -57 286 -71 373 -41 43 15 52
24 131 142 46 70 100 142 120 161 32 31 41 34 96 34 45 0 68 -5 88 -19 15 -11
65 -77 112 -147 47 -69 100 -138 119 -151 91 -67 287 -51 480 39 77 37 97 42
85 24 -4 -8 1 -9 17 -4 32 10 32 10 19 34 -7 15 -8 27 0 40 13 26 13 436 0
462 -26 48 -234 94 -500 109 -186 11 -826 10 -964 -1z"/>
</g>
</svg>
